PathFileType        4      (X/Y/Z)      Walking.trc         
DataRate	CameraRate	NumFrames	NumMarkers	Units	OrigDataRate	OrigDataStartFrame	OrigNumFrames
100.0	100.0	8	22	mm	100.0	57	84
Frame#	Time	T2			T10			MANU			LASI			RASI			SACR			LTHI			LKNE			LTIB			LANK			LHEE			LTOE			LD1MH			LD5MH			RTHI			RKNE			RTIB			RANK			RHEE			RTOE			RD1MH			RD5MH			
		X1	Y1	Z1	X2	Y2	Z2	X3	Y3	Z3	X4	Y4	Z4	X5	Y5	Z5	X6	Y6	Z6	X7	Y7	Z7	X8	Y8	Z8	X9	Y9	Z9	X10	Y10	Z10	X11	Y11	Z11	X12	Y12	Z12	X13	Y13	Z13	X14	Y14	Z14	X15	Y15	Z15	X16	Y16	Z16	X17	Y17	Z17	X18	Y18	Z18	X19	Y19	Z19	X20	Y20	Z20	X21	Y21	Z21	X22	Y22	Z22	
57	1.8	821.01717799	1097.05924402	-104.80278181	828.62140541	914.14186596	-109.02138781	936.13594714	1075.90651956	-99.59880316	980.12162003	721.29713872	-174.68400645	948.26476176	712.63424302	-6.56208545	830.81690555	765.66636462	-117.18978069	978.03141945	427.88117938	-229.78909869	973.02517258	373.81394911	-177.19729944	927.14077779	144.631465	-208.20365032	899.03638213	63.51854688	-156.70244209	846.27129952	20.67868127	-122.60618779	1023.70871884	30.77307415	-122.54731519	1014.90336341	22.90169376	-74.15896406	989.19015484	16.27159313	-168.64881721	901.94162027	429.594164	65.1745812	910.91506967	351.09135043	21.64370235	702.64160624	267.95731682	36.54028969	635.12428433	222.4030328	-14.17863332	585.46196379	241.6285576	-65.6910617	651.2756845	87.95337812	-21.79135495	653.34564416	93.93178643	-75.87952284	618.88761703	113.54006334	9.17123077	
58	1.81	835.66457642	1098.73107383	-105.37079204	843.11531337	915.90805577	-109.41134177	950.53000922	1077.58973823	-99.44755538	993.46617832	722.63336551	-175.93066378	963.22021449	714.50889375	-7.59849817	844.96098597	767.46438845	-117.23924625	983.07409455	427.40823865	-230.66266625	976.65173551	373.29355082	-177.99838858	927.72317961	144.64852815	-208.32657999	899.38748397	63.8640973	-156.47570983	846.57282122	21.43848267	-122.03241472	1023.93002549	30.70526559	-122.66967074	1015.2710225	22.97173257	-74.23415462	989.26099157	16.25463548	-168.61737593	927.09060334	433.18546687	66.09181477	939.3746113	355.23355725	22.30263811	732.53904716	270.09063728	36.80463478	666.08111618	222.40551068	-13.76089182	615.81431629	239.38542906	-65.52614809	687.05329114	88.92874163	-19.43111678	688.78770308	94.02722335	-73.6415145	653.92879185	113.68619529	11.13476782	
59	1.82	850.29486008	1100.34555909	-105.9818374	857.50394912	917.63209087	-109.79929908	964.89147945	1079.1805002	-99.2802774	1006.57615557	723.81341699	-177.08632229	977.99944784	716.40934346	-8.54856135	858.93298852	769.21255579	-117.19322745	987.847037	427.13573023	-231.38691428	980.02251169	372.99643112	-178.66190447	928.23169001	144.88268789	-208.35322217	899.77985467	64.35456628	-156.14863856	846.88408709	22.39796443	-121.29083878	1024.18243553	30.55158413	-122.75234661	1015.6975038	22.9468529	-74.26650447	989.30827081	16.20962235	-168.51745048	952.31098888	437.3695367	66.8409402	967.4895736	359.93641677	22.55675638	762.79134716	270.87006641	36.92789222	697.74083227	220.48649361	-13.43136809	646.69186667	234.95702206	-65.29180459	724.41314358	88.3306595	-17.83629282	725.7269968	92.8306051	-72.09716351	690.44748043	111.80584356	12.52925418	
60	1.83	864.92110482	1101.87662217	-106.64119446	871.79616654	919.28506384	-110.17450582	979.23645221	1080.6484398	-99.11810069	1019.47308341	724.82691287	-178.14373057	992.62948111	718.29267504	-9.40591955	872.74517561	770.87592336	-117.02212425	992.41362611	427.06259598	-231.9557733	983.20455235	372.9285756	-179.182235	928.6905503	145.34663629	-208.28388748	900.20157309	65.00248525	-155.72526372	847.2063087	23.56372846	-120.3848727	1024.45433079	30.35207924	-122.79408742	1016.1716435	22.86532436	-74.25607716	989.32086764	16.16592053	-168.35381938	977.61862669	442.04034992	67.40129794	995.2106847	365.05364151	22.41755884	793.42087073	270.1849304	36.9525177	730.08374952	216.70297605	-13.17168399	678.14226438	228.45258122	-64.97935745	763.2013861	86.2975877	-16.94130085	764.0349526	90.44618004	-71.20005493	728.3279148	108.10025568	13.39409556	
61	1.84	879.55623541	1103.29931037	-107.34960574	886.00193209	920.83924122	-110.52454988	993.58094389	1081.96482351	-98.97914157	1032.1785686	725.66541062	-179.09913932	1007.13947588	720.11475427	-10.16739437	886.40981948	772.42142807	-116.69908767	996.83523965	427.18136578	-232.37125625	986.25120948	373.08520601	-179.56579619	929.11978209	146.04402567	-208.1298355	900.64330124	65.81465108	-155.22031575	847.54171059	24.93558071	-119.33492007	1024.73240795	30.14249402	-122.79952021	1016.67770964	22.76836591	-74.20736218	989.29231916	16.14391096	-168.13466943	1002.98419229	447.07734559	67.74681215	1022.47742141	370.4338678	21.90588074	824.45724153	267.99193347	36.90733196	763.12220374	211.16590405	-12.97175343	710.25704931	220.0045054	-64.60484531	803.30955793	83.03979335	-16.63714031	803.62067521	87.02668411	-70.85957476	767.49987399	102.83289184	13.80254454	
62	1.85	894.21254104	1104.58963565	-108.10306354	900.13255672	922.26804082	-110.83590388	1007.94046099	1083.10289304	-98.8779941	1044.71451252	726.32183801	-179.95230781	1021.56019269	721.83132425	-10.8332024	899.93973415	773.81859546	-116.20155159	1001.17432854	427.48020167	-232.64201329	989.20901943	373.45290793	-179.82868357	929.53907657	146.96930559	-207.91175795	901.09982974	66.7919656	-154.65825947	847.89227449	26.5081948	-118.17830876	1025.00339501	29.94977419	-122.7777783	1017.19639234	22.69305194	-74.12901857	989.22148778	16.15371122	-167.8725908	1028.32541337	452.34572376	67.84803056	1049.21247092	375.92389487	21.05065196	855.93133631	264.31728381	36.80691038	796.89928463	204.03162039	-12.82800893	743.1647834	209.76680847	-64.20048252	844.66323003	78.81622399	-16.79251651	844.42231499	82.76373307	-70.96048568	807.92782273	96.30624682	13.84668957	
63	1.86	908.90128381	1105.72446662	-108.89289483	914.20092204	923.54602484	-111.09453418	1022.32968155	1084.03817973	-98.8254682	1057.10358391	726.78997269	-180.70639801	1035.92348698	723.39911002	-11.40703055	913.3490521	775.0400101	-115.51261746	1005.49493567	427.9434695	-232.78168552	992.12387545	374.01140573	-179.99350602	929.97071501	148.1083151	-207.65704459	901.57087823	67.92991535	-154.07093961	848.25916655	28.27259914	-116.96664984	1025.25546605	29.79035497	-122.74069875	1017.70611866	22.66775072	-74.03303329	989.11269885	16.19647608	-167.58465154	1053.5056828	457.69577977	67.67555875	1075.31924181	381.36986122	19.88758544	887.87092664	259.2519834	36.65350885	831.48496716	195.49405877	-12.74128497	777.02196589	197.91750055	-63.80534182	887.20918929	73.9144186	-17.27528348	886.39612831	77.88015938	-71.38364994	849.59940164	88.84380495	13.62183857	
64	1.87	923.63240603	1106.68151513	-109.70614881	928.22166198	924.64894684	-111.28655273	1036.76224353	1084.74880239	-98.82853353	1069.36986682	727.06401556	-181.36775095	1050.26181472	724.7769156	-11.89593277	926.65416815	776.06152025	-114.62221965	1009.86149277	428.55142972	-232.80726028	995.04570715	374.73492152	-180.08579695	930.44120334	149.43957957	-207.39614951	902.06112171	69.21954058	-153.49405413	848.64270016	30.21743128	-115.7609155	1025.47933444	29.67051205	-122.70075146	1018.1847213	22.7099661	-73.93328742	988.97519077	16.26715311	-167.29134619	1078.33968497	462.96249362	67.20452071	1100.68293866	386.61740006	18.45766667	920.29769417	252.94199108	36.44063176	866.9690568	185.77835576	-12.71500251	812.00148095	184.66356504	-63.45725369	930.90265562	68.63547241	-17.97130442	929.50397298	72.62440445	-72.02466238	892.51430245	80.77799946	13.21236367	
